<svg width="112" height="39" viewBox="0 0 112 39" fill="none" xmlns="http://www.w3.org/2000/svg">
<g clip-path="url(#clip0_1:6)">
<path d="M13.4029 39C12.954 39 12.5371 38.7747 12.3127 38.3886L3.97603 25.3886C3.68745 24.9381 3.81571 24.3589 4.2646 24.0693C4.7135 23.7797 5.32272 23.9084 5.57923 24.3589L13.3388 36.4579C17.9239 27.2871 23.0542 15.5421 23.0542 11.3589C23.0542 5.79207 17.7957 3.15346 17.2506 2.92821C16.7055 2.73514 10.2285 0.64356 5.964 3.21782C3.9119 4.44059 2.6614 6.56435 2.2125 9.55692C1.57122 13.7723 2.08424 16.9579 3.68745 18.7277C5.29066 20.4975 7.50308 20.3688 7.59927 20.3688C7.63134 20.3688 7.69547 20.3688 7.72753 20.3688C7.79166 20.3688 13.1143 20.6262 15.5832 17.7302C16.8017 16.2822 17.1544 14.2549 16.6093 11.6485C16.1925 9.62128 14.461 8.14108 12.473 8.07673C10.3568 8.01237 9.20248 8.59158 8.72152 9.91088C8.17643 11.5198 8.14436 12.7747 8.72152 13.6757C9.52312 14.9629 11.2866 15.2203 11.2866 15.2203C11.7997 15.2846 12.1844 15.7673 12.1203 16.2822C12.0562 16.797 11.5752 17.1832 11.0622 17.1188C10.966 17.1188 8.36881 16.7648 7.08625 14.7054C6.18845 13.2896 6.12432 11.4554 6.89386 9.26732C7.63134 7.11138 9.52312 6.08168 12.5051 6.14603C15.3909 6.21039 17.8277 8.30197 18.469 11.2302C19.1424 14.448 18.6614 17.0544 17.0261 18.9851C14.0442 22.4604 8.33675 22.3317 7.6634 22.2995C7.18244 22.3317 4.39286 22.3317 2.27663 20.047C0.192458 17.7945 -0.448824 14.1906 0.288651 9.26732C0.833741 5.66336 2.40488 3.0891 4.97001 1.54455C10.1965 -1.60892 17.6033 0.99752 17.9239 1.09405C17.956 1.09405 17.9881 1.12623 17.9881 1.12623C18.2766 1.25495 24.978 4.34405 24.978 11.3267C24.978 17.2153 16.9941 33.4332 14.5572 38.2599C14.3327 38.6782 13.9159 38.9678 13.467 38.9678C13.4349 39 13.4349 39 13.4029 39Z" fill="#5F85FF"/>
<path d="M21.8677 33.6906V5.24503H26.1643V33.6906H21.8677Z" fill="black"/>
<path d="M28.3126 23.3936C28.3126 17.9555 30.4289 12.8069 38.509 12.8069C46.493 12.8069 48.7054 17.9555 48.7054 23.3936C48.7054 28.896 46.493 33.9802 38.4769 33.9802C30.3968 33.948 28.3126 28.8639 28.3126 23.3936ZM44.3126 23.3936C44.3126 19.5644 43.3507 16.3144 38.509 16.3144C33.7315 16.3144 32.7054 19.5322 32.7054 23.3936C32.7054 27.2871 33.7635 30.4728 38.4769 30.4728C43.2545 30.4728 44.3126 27.3515 44.3126 23.3936Z" fill="black"/>
<path d="M50.052 23.3936C50.052 17.9233 52.2644 12.8069 60.1843 12.8069C66.4368 12.8069 69.4187 16.1535 69.4187 21.302H65.058C64.7694 18.1163 63.4869 16.3144 60.0881 16.3144C55.6632 16.3144 54.4448 19.3713 54.4448 23.3614C54.4448 27.255 55.6632 30.2797 60.1843 30.2797C63.5831 30.2797 64.8015 28.6064 65.0901 25.6139H69.4508C69.4508 30.698 66.5971 33.9802 60.3125 33.9802C52.1682 33.948 50.052 28.8639 50.052 23.3936Z" fill="black"/>
<path d="M70.7334 27.6411C70.7334 23.8762 73.4268 22.1708 79.2624 21.5594L85.7073 20.9158C85.5791 17.5371 84.521 16.2178 80.3847 16.2178C76.5691 16.2178 75.543 17.7302 75.543 20.3045L71.3747 20.3366C71.3747 16.0569 73.1382 12.7747 80.3526 12.7747C88.7213 12.7747 89.9398 16.4109 89.9398 21.9455V33.6584H87.6312L86.7334 30.5693C85.7715 32.1782 82.9177 33.948 78.6853 33.948C74.2604 33.948 70.7334 31.9851 70.7334 27.6411ZM85.7073 24.8416V24.198L79.9037 24.8416C76.3446 25.2599 75.1262 26 75.1262 27.6089C75.1262 29.5074 76.7294 30.6015 79.7434 30.6015C83.8797 30.5693 85.7073 28.4134 85.7073 24.8416Z" fill="black"/>
<path d="M92.3767 33.6906V5.24503H96.6733V33.6906H92.3767Z" fill="black"/>
<path d="M99.6232 33.6906V5.24503H103.92V33.6906H99.6232Z" fill="black"/>
<path d="M105.78 7.33663C105.78 5.24505 107.03 4.73019 108.954 4.73019C110.814 4.73019 112 5.24505 112 7.33663C112 9.39604 110.814 9.91089 108.954 9.91089C107.03 9.91089 105.78 9.39604 105.78 7.33663ZM106.806 33.6906V13.0965H111.07V33.6906H106.806Z" fill="black"/>
</g>
<defs>
<clipPath id="clip0_1:6">
<rect width="112" height="39" fill="white"/>
</clipPath>
</defs>
</svg>
